<svg width="20" height="21" viewBox="0 0 20 21" fill="none" xmlns="http://www.w3.org/2000/svg">
<path d="M19 13C19 13.8417 18.7271 15.5987 17.5017 17.1236C16.3139 18.6018 14.1208 20 10 20C5.90915 20 3.71093 18.4989 2.50884 16.9495C1.26323 15.3441 1 13.5718 1 13C1 9.33071 4.80967 6 10 6C15.1903 6 19 9.33071 19 13Z" stroke="white" stroke-width="2"/>
<path d="M10.625 5.5V2.02273C10.625 1.45789 10.1671 1 9.60227 1C9.08618 1 8.6207 1.31032 8.4222 1.78671L8.32313 2.02448C8.19406 2.33425 8.16162 2.67579 8.23007 3.00432L8.75 5.5H10.625Z" fill="white" stroke="white"/>
<path d="M11.1771 4.9145C11.1234 4.97621 13.1392 5.43448 13.1392 5.43448C13.1626 5.40393 13.1883 5.34776 13.1951 5.31235C13.2363 5.09801 13.5139 4.8912 13.6924 4.74642C13.9745 4.51746 14.2877 4.31688 14.56 4.07891C14.6834 3.97111 14.7921 3.85089 14.9213 3.74758C15.0193 3.66918 14.7744 3.65433 14.7051 3.63996C14.4419 3.58537 14.148 3.56999 13.8798 3.59401C13.6695 3.61283 13.454 3.62408 13.2449 3.64963C12.9681 3.68346 12.723 3.80784 12.4922 3.92776C12.1506 4.10518 11.9139 4.33828 11.6215 4.55415C11.4631 4.67113 11.3016 4.77145 11.1771 4.9145Z" fill="white" stroke="white" stroke-linecap="round"/>
<path d="M5.79308 3.56499C6.15013 3.69994 6.48459 3.88102 6.80583 4.0632C7.13787 4.25151 8.04299 4.76539 8.81937 5.23246C9.34367 5.54788 5.92012 5.84196 6.11086 6C5.88662 5.40571 5.66653 4.8179 5.53914 4.19985C5.52038 4.10882 5.33226 3.51904 5.58902 3.51904C5.66538 3.51904 5.72219 3.5382 5.79308 3.56499Z" fill="white" stroke="white" stroke-linecap="round"/>
</svg>
