<svg width="16" height="21" viewBox="0 0 16 21" fill="none" xmlns="http://www.w3.org/2000/svg">
<path d="M15 13C15 13.8827 14.7711 15.6734 13.7838 17.2092C12.8398 18.6777 11.1542 20 8 20C4.88044 20 3.18622 18.5843 2.22464 17.0351C1.22194 15.4197 1 13.6151 1 13C1 9.13401 4.13401 6 8 6C11.866 6 15 9.13401 15 13Z" stroke="black" stroke-width="2"/>
<path d="M8.5 5.5V1.78908C8.5 1.35328 8.14672 1 7.71092 1C7.28637 1 6.90944 1.27167 6.77519 1.67444L6.62814 2.11557C6.54399 2.36802 6.52287 2.63722 6.56662 2.89971L7 5.5H8.5Z" fill="black" stroke="black"/>
<path d="M8.94171 4.9145C8.89876 4.9762 10.5114 5.43448 10.5114 5.43448C10.5301 5.40393 10.5506 5.34776 10.5561 5.31235C10.589 5.09801 10.8112 4.8912 10.9539 4.74642C11.1796 4.51746 11.4302 4.31688 11.648 4.07891C11.7467 3.97111 11.8337 3.85089 11.937 3.74758C12.0154 3.66918 11.8195 3.65433 11.7641 3.63996C11.5536 3.58537 11.3184 3.56999 11.1038 3.59401C10.9356 3.61283 10.7632 3.62408 10.596 3.64963C10.3745 3.68346 10.1784 3.80784 9.99375 3.92776C9.72052 4.10518 9.53109 4.33828 9.29723 4.55415C9.1705 4.67113 9.04128 4.77145 8.94171 4.9145Z" fill="black" stroke="black" stroke-linecap="round"/>
<path d="M4.63446 3.56499C4.9201 3.69994 5.18766 3.88102 5.44466 4.0632C5.71029 4.25151 6.43439 4.76539 7.05549 5.23246C7.47493 5.54788 4.73609 5.84196 4.88868 6C4.70929 5.40571 4.53322 4.8179 4.43131 4.19985C4.4163 4.10882 4.26581 3.51904 4.47121 3.51904C4.53229 3.51904 4.57775 3.5382 4.63446 3.56499Z" fill="black" stroke="black" stroke-linecap="round"/>
</svg>
