<svg width="16" height="21" viewBox="0 0 16 21" fill="none" xmlns="http://www.w3.org/2000/svg">
<path d="M15 13C15 13.2716 14.8557 13.8568 14.4697 14.6612C14.1002 15.4314 13.5584 16.3002 12.8863 17.1126C11.5071 18.7798 9.76222 20 8 20C6.26689 20 4.52511 18.6919 3.12449 16.9384C2.44696 16.0902 1.89946 15.1982 1.52543 14.4403C1.33842 14.0613 1.20058 13.7276 1.11168 13.4596C1.06732 13.3258 1.03777 13.2163 1.01994 13.1314C1.01112 13.0895 1.00588 13.0569 1.00296 13.033C1.00017 13.0103 1.00001 12.9998 1 12.9998L1 13C1 9.13401 4.13401 6 8 6C11.866 6 15 9.13401 15 13Z" stroke="black" stroke-width="2"/>
<path d="M8.5 5.5V1.78908C8.5 1.35328 8.14672 1 7.71092 1C7.28637 1 6.90944 1.27167 6.77519 1.67444L6.62814 2.11557C6.54399 2.36802 6.52287 2.63722 6.56662 2.89971L7 5.5H8.5Z" stroke="black"/>
<path d="M8.8136 5.12974C8.82568 5.05325 8.89883 4.97619 8.94178 4.91449C9.04135 4.77144 9.17057 4.67111 9.2973 4.55413C9.53116 4.33826 9.72059 4.10517 9.99382 3.92774C10.1785 3.80783 10.3746 3.68345 10.596 3.64962C10.7633 3.62406 10.9356 3.61282 11.1039 3.59399C11.3185 3.56998 11.5536 3.58536 11.7642 3.63994C11.8196 3.65432 12.0155 3.66916 11.9371 3.74756C11.8338 3.85088 11.7468 3.9711 11.6481 4.0789C11.4302 4.31686 11.1797 4.51744 10.954 4.7464C10.8112 4.89118 10.5891 5.09799 10.5561 5.31233C10.5507 5.34774 10.5391 5.42059 10.5114 5.43447" stroke="black" stroke-linecap="round"/>
<path d="M6.68051 5.15153C6.30195 4.75945 5.88967 4.37868 5.44466 4.0632C5.18766 3.88102 4.9201 3.69994 4.63446 3.56499C4.57775 3.5382 4.53229 3.51904 4.47121 3.51904C4.26581 3.51904 4.4163 4.10882 4.43131 4.19985C4.54691 4.9009 4.75791 5.56303 4.96096 6.23985" stroke="black" stroke-linecap="round"/>
</svg>
