<svg width="16" height="21" viewBox="0 0 16 21" fill="none" xmlns="http://www.w3.org/2000/svg">
<path d="M5.6709 16.4541C5.45605 16.4541 5.29329 16.3988 5.18262 16.2881C5.0752 16.1774 5.02148 16.0146 5.02148 15.7998V9.14941C5.02148 8.93783 5.0752 8.77669 5.18262 8.66602C5.29329 8.55534 5.45605 8.5 5.6709 8.5H6.78418C6.99577 8.5 7.1569 8.55371 7.26758 8.66113C7.37826 8.7653 7.43359 8.92806 7.43359 9.14941V15.7998C7.43359 16.0146 7.37826 16.1774 7.26758 16.2881C7.1569 16.3988 6.99577 16.4541 6.78418 16.4541H5.6709ZM9.2207 16.4541C9.00586 16.4541 8.8431 16.3988 8.73242 16.2881C8.62174 16.1774 8.56641 16.0146 8.56641 15.7998V9.14941C8.56641 8.93783 8.62174 8.77669 8.73242 8.66602C8.8431 8.55534 9.00586 8.5 9.2207 8.5H10.3291C10.5439 8.5 10.7051 8.55371 10.8125 8.66113C10.9232 8.7653 10.9785 8.92806 10.9785 9.14941V15.7998C10.9785 16.0146 10.9232 16.1774 10.8125 16.2881C10.7051 16.3988 10.5439 16.4541 10.3291 16.4541H9.2207Z" fill="white"/>
<path d="M15 13C15 13.2716 14.8557 13.8568 14.4697 14.6612C14.1002 15.4314 13.5584 16.3002 12.8863 17.1126C11.5071 18.7798 9.76222 20 8 20C6.26689 20 4.52511 18.6919 3.12449 16.9384C2.44696 16.0902 1.89946 15.1982 1.52543 14.4403C1.33842 14.0613 1.20058 13.7276 1.11168 13.4596C1.06732 13.3258 1.03777 13.2163 1.01994 13.1314C1.01112 13.0895 1.00588 13.0569 1.00296 13.033C1.00017 13.0103 1.00001 12.9998 1 12.9998L1 13C1 9.13401 4.13401 6 8 6C11.866 6 15 9.13401 15 13Z" stroke="white" stroke-width="2"/>
<path d="M8.5 5.5V1.78908C8.5 1.35328 8.14672 1 7.71092 1C7.28637 1 6.90944 1.27167 6.77519 1.67444L6.62814 2.11557C6.54399 2.36802 6.52287 2.63722 6.56662 2.89971L7 5.5H8.5Z" stroke="white"/>
<path d="M8.8136 5.12975C8.82568 5.05326 8.89883 4.97621 8.94178 4.9145C9.04135 4.77145 9.17057 4.67113 9.2973 4.55415C9.53116 4.33828 9.72059 4.10518 9.99382 3.92776C10.1785 3.80784 10.3746 3.68346 10.596 3.64963C10.7633 3.62408 10.9356 3.61283 11.1039 3.59401C11.3185 3.56999 11.5536 3.58537 11.7642 3.63996C11.8196 3.65433 12.0155 3.66918 11.9371 3.74758C11.8338 3.85089 11.7468 3.97111 11.6481 4.07891C11.4302 4.31688 11.1797 4.51746 10.954 4.74642C10.8112 4.8912 10.5891 5.09801 10.5561 5.31235C10.5507 5.34776 10.5391 5.4206 10.5114 5.43448" stroke="white" stroke-linecap="round"/>
<path d="M6.68051 5.15153C6.30195 4.75945 5.88967 4.37868 5.44466 4.0632C5.18766 3.88102 4.9201 3.69994 4.63446 3.56499C4.57775 3.5382 4.53229 3.51904 4.47121 3.51904C4.26581 3.51904 4.4163 4.10882 4.43131 4.19985C4.54691 4.9009 4.75791 5.56303 4.96096 6.23985" stroke="white" stroke-linecap="round"/>
</svg>
