<svg width="32" height="32" viewBox="0 0 32 32" fill="none" xmlns="http://www.w3.org/2000/svg">
  <!-- Background circle for better visibility -->
  <rect width="32" height="32" rx="6" fill="#ffffff"/>

  <!-- Tomato body -->
  <path d="M26 18.5C26 19.5 25.6 21.8 24 23.8C22.5 25.6 19.5 27.5 16 27.5C12.5 27.5 9.5 25.6 8 23.8C6.4 21.8 6 19.5 6 18.5C6 13.8 10.5 10 16 10C21.5 10 26 13.8 26 18.5Z" fill="#FF6347" stroke="#D2471C" stroke-width="1"/>

  <!-- Tomato stem -->
  <path d="M16.8 9.5V5.5C16.8 4.7 16.3 4 15.6 4C14.9 4 14.4 4.4 14.2 5L14.1 5.3C14 5.7 14 6.1 14.1 6.5L14.8 9.5H16.8Z" fill="#228B22" stroke="#1F5F1F" stroke-width="0.5"/>

  <!-- Left leaf -->
  <path d="M11.5 8.5C12 8.7 12.4 9 12.8 9.3C13.2 9.6 14.4 10.3 15.4 10.9C16.1 11.3 11.8 11.7 12.1 12C11.8 11.2 11.5 10.4 11.3 9.5C11.3 9.4 11 8.5 11.4 8.5C11.5 8.5 11.5 8.5 11.5 8.5Z" fill="#228B22" stroke="#1F5F1F" stroke-width="0.5"/>

  <!-- Right leaf -->
  <path d="M18.2 8.9C18.1 9 20.8 9.6 20.8 9.6C20.8 9.5 20.9 9.4 20.9 9.4C21 9.1 21.3 8.8 21.5 8.6C21.9 8.3 22.3 8 22.7 7.7C22.8 7.6 22.9 7.5 23 7.4C23.1 7.3 22.8 7.3 22.7 7.3C22.4 7.2 22 7.2 21.7 7.2C21.4 7.2 21.1 7.2 20.8 7.3C20.5 7.4 20.2 7.5 19.9 7.7C19.5 7.9 19.2 8.2 18.8 8.4C18.6 8.6 18.4 8.7 18.2 8.9Z" fill="#228B22" stroke="#1F5F1F" stroke-width="0.5"/>

  <!-- Tomato highlight for dimension -->
  <ellipse cx="13" cy="16" rx="2" ry="3" fill="#FF7F50" opacity="0.6"/>
</svg>
