<?xml version="1.0" encoding="UTF-8"?>
<svg width="401px" height="311px" viewBox="0 0 401 311" version="1.1" xmlns="http://www.w3.org/2000/svg" xmlns:xlink="http://www.w3.org/1999/xlink">
    <title>Shape</title>
    <g id="Page-1" stroke="none" stroke-width="1" fill="none" fill-rule="evenodd">
        <g id="Hayaku-Logo" transform="translate(-1.000000, -1.000000)" fill="currentColor" fill-rule="nonzero">
            <g id="f0" transform="translate(201.947461, 157.348990) rotate(0.470000) translate(-201.947461, -157.348990) translate(1.627461, 2.148990)">
                <path d="M125.4912,308.3904 L129.1456,305.0496 L131.3472,300.6144 L132.1856,297.6448 L132.6336,292.2048 L131.8976,285.4272 L131.5584,283.5008 L127.0464,265.1008 L125.0112,253.8112 L124.8192,252.8896 L121.5168,239.6288 L118.5216,225.504 L116.576,208.8384 L115.2896,191.8464 L127.4368,191.2448 L155.7184,190.6688 L155.68,190.6688 L223.1936,189.5552 L223.8912,189.5168 L238.8608,188.16 L242.016,187.2512 L244.608,185.2352 L246.2656,182.4 L246.752,179.1488 L245.9904,175.9552 L244.1024,173.2736 L241.3504,171.4816 L238.1248,170.8416 L223.0912,170.7648 L222.9248,170.7648 L155.4048,171.5712 L154.8608,171.5904 L126.4256,173.568 L126.0224,173.6 L114.304,174.9504 L113.2672,156.6656 L113.2288,156.2048 L111.6992,142.9056 L111.5008,141.8944 L109.248,133.6128 L109.1456,133.28 L107.4432,128.3136 L107.04,127.5264 L111.9296,127.3728 L125.664,128.064 L136.8192,129.2864 L145.4912,131.3152 L151.872,133.0688 L154.9376,133.3632 L158.3616,133.0944 L160.4736,132.6208 L162.3744,131.5776 L163.904,130.0416 L165.0176,128.5568 L166.0352,126.496 L166.24,124.2112 L165.6128,122.0032 L165.12,121.3504 L167.3472,119.5328 L168.96,116.6208 L170.1184,113.056 L170.2912,112.4544 L174.5984,95.5264 L174.6816,95.168 L177.6064,81.1456 L177.6384,80.9728 L184.1728,45.2736 L184.2048,45.0816 L185.9072,32.7616 L185.9008,32.8 L186.2784,30.3296 L187.4624,30.6112 L190.0928,30.2656 L192.4224,28.992 L194.144,26.9696 L194.1824,26.8992 L194.4768,26.3104 L194.5088,26.2336 L195.04,24.3136 L195.0272,22.3168 L194.4768,20.3968 L193.0944,17.312 L191.5776,15.0016 L188.384,11.5328 L185.6704,9.4848 L179.6608,6.4704 L177.7792,5.7472 L168.7424,3.2576 L167.3536,2.9632 L154.3616,1.1008 L153.1392,0.992 L135.5584,0.2624 L134.7392,0.256 L113.3056,0.768 L112.7424,0.7936 L90.0672,2.368 L89.0304,2.4896 L46.208,9.3056 L45.824,9.376 L34.2592,11.712 L32.5888,12.2496 L25.92,15.232 L24.4544,16.256 L23.4816,17.76 L23.1424,19.52 L23.4816,21.2736 L24.4544,22.7776 L25.92,23.808 L32.5888,26.7904 L35.5392,27.4752 L47.328,27.9232 L48.1344,27.9168 L91.2512,25.8112 L113.7856,25.472 L113.6768,25.472 L135.1168,25.344 L135.104,25.344 L152.6592,25.2672 L165.2864,25.3056 L173.5744,25.9008 L178.3168,26.9056 L181.3888,28.4288 L180.0064,30.592 L179.6736,31.2832 L175.6672,43.0592 L175.68,43.0336 L165.3248,72.8512 L165.7856,71.3024 L165.5872,68.416 L164.384,65.7856 L162.336,63.744 L159.6928,62.56 L137.6768,57.1328 L136.0832,56.8576 L121.4016,55.4688 L119.9424,55.424 L103.3216,55.968 L102.2912,56.0512 L81.9392,58.6496 L81.1968,58.7776 L62.8224,62.5664 L62.144,62.7328 L51.8848,65.7024 L51.7568,65.7408 L48.1088,66.8672 L45.6128,58.9632 L45.4592,58.5152 L40.4416,45.3184 L40.0896,44.5376 L31.3216,28.2304 L31.072,27.8272 L29.5744,25.824 L29.1328,25.4016 L28.5696,25.1584 L27.9616,25.12 L27.3792,25.2928 L26.8864,25.6512 L26.5408,26.1632 L25.5296,28.448 L25.28,29.2928 L25.2736,30.176 L27.6544,48.5312 L27.6608,48.5888 L29.568,62.3104 L30.3616,73.9392 L30.4768,74.9056 L32.256,85.3376 L32.4288,86.1568 L34.8224,95.6416 L34.848,95.744 L39.5008,113.4656 L39.9808,114.9312 L42.4064,120.9344 L43.2064,122.5472 L45.7536,126.8416 L47.4816,129.0816 L49.8688,131.4944 L52.9088,133.6512 L56.4992,134.6624 L60.2176,134.3936 L63.6288,132.8896 L66.336,130.3168 L68.0064,126.9888 L68.2176,125.3184 L68.8512,125.8752 L69.248,126.144 L69.696,126.2976 L78.8288,128.2176 L79.7888,128.3072 L95.5264,127.8848 L95.5584,127.8784 L100.192,127.7376 L100.0384,127.9936 L99.7888,128.7616 L98.6816,133.8944 L98.5664,134.7968 L98.1824,143.3792 L98.1888,143.2256 L97.2992,156.5824 L97.2992,156.5184 L95.7504,177.1584 L73.28,180.2688 L73.1584,180.288 L49.9648,183.9168 L49.8496,183.936 L29.6576,187.5008 L16.0064,189.1392 L9.248,189.4144 L5.4464,188.672 L5.0816,188.6208 L3.0912,188.4544 L3.104,188.4864 L2.4896,188.4736 L1.6128,188.7744 L0.9024,189.3632 L0.4416,190.1568 L0.2816,191.072 L0.4608,191.9744 L0.9408,192.7616 L2.2656,194.2528 L2.816,194.752 L3.4624,195.1168 L7.4432,196.8192 L8.4736,197.1008 L15.7504,198.0288 L16.5952,198.0544 L30.7008,197.184 L30.7584,197.184 L51.3152,195.6608 L51.2512,195.6608 L74.6816,194.1888 L74.6752,194.1888 L94.6304,192.9408 L93.9456,209.4528 L93.9328,209.8368 L93.8048,227.4304 L93.856,228.6016 L95.1744,243.7248 L95.2256,244.2112 L96.9472,258.0736 L97.984,269.4976 L98.2912,271.4496 L102.6304,290.3616 L102.784,290.9696 L104.5888,297.5488 L104.6144,297.6448 L105.4528,300.6144 L107.648,305.0496 L111.3024,308.3904 L115.9232,310.1824 L120.8768,310.1824 M391.2576,298.4896 L395.0464,296.9728 L398.0224,294.1824 L399.776,290.496 L400.0704,286.4256 L398.8608,282.528 L396.32,279.3344 L377.4784,263.0848 L365.2224,252.3584 L353.9456,241.6576 L342.2336,229.9008 L306.6816,192.3264 L290.368,172.864 L289.1712,171.6288 L277.9712,161.6448 L277.5744,161.216 L277.6512,161.0496 L287.744,145.984 L299.7312,128.9344 L306.4768,119.6928 L323.616,98.496 L342.9824,75.968 L353.1072,65.4784 L382.3104,38.3168 L382.7712,37.8496 L389.632,30.0096 L390.016,29.5296 L394.7712,22.8672 L395.1616,22.24 L397.536,17.8112 L397.9392,16.832 L398.7648,14.048 L398.944,12.9664 L399.0592,10.0544 L398.8672,8.7744 L398.2336,7.648 L397.2352,6.8224 L396.0064,6.4128 L394.7136,6.4768 L393.5296,6.9952 L392.6144,7.904 L391.232,9.9008 L389.4528,11.5328 L389.056,11.9424 L385.7856,15.68 L380.416,21.6832 L373.408,28.992 L344.032,55.9552 L343.9168,56.064 L333.1712,66.432 L332.9408,66.6688 L312.2816,88.5952 L312.2112,88.672 L293.664,108.8896 L293.4848,109.088 L285.7664,118.0608 L285.4656,118.4384 L272.6208,135.1168 L272.544,135.2128 L261.2608,150.272 L261.2032,150.3616 L259.008,153.3568 L257.5488,156.1984 L256.032,160.8192 L255.5072,164.48 L256.2496,168.1088 L257.0368,170.0992 L258.3552,172.4928 L261.0176,176.1728 L261.9456,177.2864 L272.192,188.1344 L287.2512,208.1728 L287.9744,209.056 L323.0656,247.8464 L323.2896,248.0896 L334.9888,260.384 L335.232,260.64 L346.6112,271.9808 L347.8656,273.0816 L360.96,283.2576 L362.1504,284.0768 L383.3664,297.0752 L387.1808,298.528 M67.6352,119.648 L66.3232,116.5184 L66.3424,116.5504 L64.6144,112.3776 L62.6688,106.5664 L62.72,106.7136 L57.1328,89.2608 L56.6912,88.096 L53.5552,81.024 L54.6944,81.1456 L65.3376,80.3072 L65.5744,80.288 L83.8464,78.3744 L103.6416,77.8048 L119.9424,78.336 L119.9104,78.336 L134.6432,78.8608 L135.232,78.8672 L157.9008,78.4768 L160.736,77.9072 L163.1936,76.3712 L164.8512,74.2144 L163.8528,77.0752 L158.5472,90.2848 L158.5472,90.2784 L152.0256,106.4832 L151.3984,108.9536 L151.4368,111.5008 L151.6736,113.0752 L150.7776,112.6976 L141.6128,109.7728 L138.5152,109.2992 L126.3616,109.3504 L125.1008,109.44 L110.8864,111.4368 L110.1248,111.5776 L93.888,115.488 L93.5232,115.5904 L78.464,120.192 L78.56,120.1664 L69.5744,122.688 L69.1904,122.848 L68.4544,123.2512" id="Shape"></path>
            </g>
        </g>
    </g>
</svg>
