<svg width="35" height="21" viewBox="0 0 35 21" fill="none" xmlns="http://www.w3.org/2000/svg">
<path d="M34 13C34 13.6638 33.6201 15.3653 31.4127 16.935C29.1852 18.519 25.0444 20 17.5 20C2.43557 20 1 13.6862 1 13C1 11.4211 2.4442 9.66848 5.54139 8.25262C8.55031 6.87711 12.7774 6 17.5 6C22.2226 6 26.4497 6.87711 29.4586 8.25262C32.5558 9.66848 34 11.4211 34 13Z" stroke="black" stroke-width="2"/>
<path d="M16.5876 1H16.2187C15.6493 1 15.1141 1.2721 14.7786 1.73221C14.4287 2.2121 14.3408 2.83476 14.5442 3.39275L15.3125 5.5H18.5938V3.0062C18.5938 1.89821 17.6955 1 16.5876 1Z" fill="black" stroke="black"/>
<path d="M19.56 4.9145C19.466 4.97621 22.9936 5.43448 22.9936 5.43448C23.0346 5.40393 23.0794 5.34776 23.0914 5.31235C23.1635 5.09801 23.6494 4.8912 23.9616 4.74642C24.4554 4.51746 25.0034 4.31688 25.48 4.07891C25.6959 3.97111 25.8862 3.85089 26.1122 3.74758C26.2837 3.66918 25.8552 3.65433 25.7339 3.63996C25.2734 3.58537 24.7591 3.56999 24.2896 3.59401C23.9215 3.61283 23.5445 3.62408 23.1786 3.64963C22.6943 3.68346 22.2653 3.80784 21.8613 3.92776C21.2636 4.10518 20.8492 4.33828 20.3377 4.55415C20.0604 4.67113 19.7778 4.77145 19.56 4.9145Z" fill="black" stroke="black" stroke-linecap="round"/>
<path d="M10.1379 3.56499C10.7627 3.69994 11.348 3.88102 11.9102 4.0632C12.4913 4.25151 14.0752 4.76539 15.4339 5.23246C16.3514 5.54788 10.3602 5.84196 10.694 6C10.3016 5.40571 9.91642 4.8179 9.69348 4.19985C9.66065 4.10882 9.33145 3.51904 9.78078 3.51904C9.91439 3.51904 10.0138 3.5382 10.1379 3.56499Z" fill="black" stroke="black" stroke-linecap="round"/>
</svg>
