<svg width="18" height="21" viewBox="0 0 18 21" fill="none" xmlns="http://www.w3.org/2000/svg">
<path d="M17 13C17 13.8627 16.7482 15.6355 15.6428 17.164C14.58 18.6336 12.6426 20 9 20C5.38963 20 3.44558 18.5349 2.36677 16.99C1.24347 15.3813 1 13.5939 1 13C1 9.24148 4.46774 6 9 6C13.5323 6 17 9.24148 17 13Z" stroke="black" stroke-width="2"/>
<path d="M9.5625 5.5V1.90422C9.5625 1.40483 9.15767 1 8.65828 1C8.18713 1 7.7654 1.29226 7.59997 1.73341L7.47395 2.06947C7.36833 2.35111 7.3418 2.65629 7.39724 2.95193L7.875 5.5H9.5625Z" fill="black" stroke="black"/>
<path d="M10.0594 4.9145C10.0111 4.97621 11.8253 5.43448 11.8253 5.43448C11.8464 5.40393 11.8694 5.34776 11.8756 5.31235C11.9127 5.09801 12.1626 4.8912 12.3231 4.74642C12.5771 4.51746 12.8589 4.31688 13.104 4.07891C13.215 3.97111 13.3129 3.85089 13.4292 3.74758C13.5174 3.66918 13.297 3.65433 13.2346 3.63996C12.9978 3.58537 12.7333 3.56999 12.4918 3.59401C12.3025 3.61283 12.1086 3.62408 11.9205 3.64963C11.6714 3.68346 11.4507 3.80784 11.243 3.92776C10.9356 4.10518 10.7225 4.33828 10.4594 4.55415C10.3168 4.67113 10.1715 4.77145 10.0594 4.9145Z" fill="black" stroke="black" stroke-linecap="round"/>
<path d="M5.21376 3.56499C5.5351 3.69994 5.83611 3.88102 6.12523 4.0632C6.42406 4.25151 7.23867 4.76539 7.93742 5.23246C8.40929 5.54788 5.32809 5.84196 5.49976 6C5.29794 5.40571 5.09986 4.8179 4.98521 4.19985C4.96832 4.10882 4.79902 3.51904 5.0301 3.51904C5.09882 3.51904 5.14996 3.5382 5.21376 3.56499Z" fill="black" stroke="black" stroke-linecap="round"/>
</svg>
