<svg width="23" height="17" viewBox="0 0 23 17" fill="none" xmlns="http://www.w3.org/2000/svg">
<path d="M17.6973 13.7778L17.1105 15.3497C16.9645 15.7408 16.591 16 16.1736 16H4.18723C3.16057 16 2.30066 15.2226 2.19738 14.2012L1.00348 2.39312C1.00149 2.37347 0.998723 2.35425 1.00156 2.33469C1.03016 2.13756 1.54384 1 9.5912 1C16.983 1 18.3924 1.95977 18.6547 2.26892C18.7031 2.32599 18.7131 2.40141 18.7131 2.47626V3.72727M17.6973 13.7778C17.6973 13.7778 22 10.4444 22 7.41414C22 4.38384 18.7131 3.72727 18.7131 3.72727M17.6973 13.7778L18.7131 3.72727" stroke="black" stroke-width="2"/>
</svg>
