<svg width="23" height="18" viewBox="0 0 23 18" fill="none" xmlns="http://www.w3.org/2000/svg">
<path d="M1.00053 2.36363L2.20855 15.1876C2.30533 16.2149 3.16783 17 4.19974 17H16.1736C16.591 17 16.9645 16.7408 17.1105 16.3497L17.6973 14.7778M1.00053 2.36363C1.00053 2.36363 0.780422 1 9.59123 1C18.402 1 18.7132 2.36363 18.7132 2.36363M1.00053 2.36363C1.00053 2.36363 0.780394 3.36363 9.5912 3.36363C18.402 3.36363 18.7132 2.36363 18.7132 2.36363M1.00053 2.36363C1.00053 2.36363 0.780394 2.36363 9.5912 2.36363C18.402 2.36363 18.7132 2.36363 18.7132 2.36363M18.7132 2.36363V4.72727M17.6973 14.7778C17.6973 14.7778 22 11.4444 22 8.41414C22 5.38384 18.7132 4.72727 18.7132 4.72727M17.6973 14.7778L18.7132 4.72727" stroke="black" stroke-width="2"/>
</svg>
